<svg id="visual" viewBox="0 0 960 70" width="960" height="70" xmlns="http://www.w3.org/2000/svg" xmlns:xlink="http://www.w3.org/1999/xlink" version="1.1"><path d="M0 16L13.3 22.2C26.7 28.3 53.3 40.7 80 48.2C106.7 55.7 133.3 58.3 160 56.5C186.7 54.7 213.3 48.3 240 44.3C266.7 40.3 293.3 38.7 320 36.2C346.7 33.7 373.3 30.3 400 28.7C426.7 27 453.3 27 480 26.3C506.7 25.7 533.3 24.3 560 29C586.7 33.7 613.3 44.3 640 47C666.7 49.7 693.3 44.3 720 40C746.7 35.7 773.3 32.3 800 29.8C826.7 27.3 853.3 25.7 880 29.2C906.7 32.7 933.3 41.3 946.7 45.7L960 50L960 0L946.7 0C933.3 0 906.7 0 880 0C853.3 0 826.7 0 800 0C773.3 0 746.7 0 720 0C693.3 0 666.7 0 640 0C613.3 0 586.7 0 560 0C533.3 0 506.7 0 480 0C453.3 0 426.7 0 400 0C373.3 0 346.7 0 320 0C293.3 0 266.7 0 240 0C213.3 0 186.7 0 160 0C133.3 0 106.7 0 80 0C53.3 0 26.7 0 13.3 0L0 0Z" fill="#ffffff"></path><path d="M0 37L13.3 37.7C26.7 38.3 53.3 39.7 80 40.8C106.7 42 133.3 43 160 40.2C186.7 37.3 213.3 30.7 240 28.8C266.7 27 293.3 30 320 33.5C346.7 37 373.3 41 400 42.7C426.7 44.3 453.3 43.7 480 38.8C506.7 34 533.3 25 560 22.2C586.7 19.3 613.3 22.7 640 24.5C666.7 26.3 693.3 26.7 720 26.5C746.7 26.3 773.3 25.7 800 28.5C826.7 31.3 853.3 37.7 880 38.2C906.7 38.7 933.3 33.3 946.7 30.7L960 28L960 0L946.7 0C933.3 0 906.7 0 880 0C853.3 0 826.7 0 800 0C773.3 0 746.7 0 720 0C693.3 0 666.7 0 640 0C613.3 0 586.7 0 560 0C533.3 0 506.7 0 480 0C453.3 0 426.7 0 400 0C373.3 0 346.7 0 320 0C293.3 0 266.7 0 240 0C213.3 0 186.7 0 160 0C133.3 0 106.7 0 80 0C53.3 0 26.7 0 13.3 0L0 0Z" fill="#c2afd3"></path><path d="M0 18L13.3 20C26.7 22 53.3 26 80 27.7C106.7 29.3 133.3 28.7 160 26C186.7 23.3 213.3 18.7 240 20C266.7 21.3 293.3 28.7 320 30.5C346.7 32.3 373.3 28.7 400 26.3C426.7 24 453.3 23 480 22.5C506.7 22 533.3 22 560 19.3C586.7 16.7 613.3 11.3 640 13.5C666.7 15.7 693.3 25.3 720 28C746.7 30.7 773.3 26.3 800 23.8C826.7 21.3 853.3 20.7 880 19.5C906.7 18.3 933.3 16.7 946.7 15.8L960 15L960 0L946.7 0C933.3 0 906.7 0 880 0C853.3 0 826.7 0 800 0C773.3 0 746.7 0 720 0C693.3 0 666.7 0 640 0C613.3 0 586.7 0 560 0C533.3 0 506.7 0 480 0C453.3 0 426.7 0 400 0C373.3 0 346.7 0 320 0C293.3 0 266.7 0 240 0C213.3 0 186.7 0 160 0C133.3 0 106.7 0 80 0C53.3 0 26.7 0 13.3 0L0 0Z" fill="#8664a7"></path><path d="M0 5L13.3 5.8C26.7 6.7 53.3 8.3 80 11.5C106.7 14.7 133.3 19.3 160 19.5C186.7 19.7 213.3 15.3 240 15C266.7 14.7 293.3 18.3 320 18.8C346.7 19.3 373.3 16.7 400 14C426.7 11.3 453.3 8.7 480 9.8C506.7 11 533.3 16 560 17C586.7 18 613.3 15 640 15.5C666.7 16 693.3 20 720 18.3C746.7 16.7 773.3 9.3 800 8C826.7 6.7 853.3 11.3 880 14.8C906.7 18.3 933.3 20.7 946.7 21.8L960 23L960 0L946.7 0C933.3 0 906.7 0 880 0C853.3 0 826.7 0 800 0C773.3 0 746.7 0 720 0C693.3 0 666.7 0 640 0C613.3 0 586.7 0 560 0C533.3 0 506.7 0 480 0C453.3 0 426.7 0 400 0C373.3 0 346.7 0 320 0C293.3 0 266.7 0 240 0C213.3 0 186.7 0 160 0C133.3 0 106.7 0 80 0C53.3 0 26.7 0 13.3 0L0 0Z" fill="#461d7c"></path></svg>