<svg id="visual" viewBox="0 0 960 100" width="960" height="100" xmlns="http://www.w3.org/2000/svg" xmlns:xlink="http://www.w3.org/1999/xlink" version="1.1"><path d="M0 26L46 26L46 13L91 13L91 30L137 30L137 14L183 14L183 23L229 23L229 32L274 32L274 11L320 11L320 12L366 12L366 17L411 17L411 11L457 11L457 24L503 24L503 10L549 10L549 17L594 17L594 32L640 32L640 11L686 11L686 21L731 21L731 19L777 19L777 14L823 14L823 25L869 25L869 28L914 28L914 19L960 19L960 19L960 0L960 0L914 0L914 0L869 0L869 0L823 0L823 0L777 0L777 0L731 0L731 0L686 0L686 0L640 0L640 0L594 0L594 0L549 0L549 0L503 0L503 0L457 0L457 0L411 0L411 0L366 0L366 0L320 0L320 0L274 0L274 0L229 0L229 0L183 0L183 0L137 0L137 0L91 0L91 0L46 0L46 0L0 0Z" fill="#461d7c"></path><path d="M0 48L46 48L46 20L91 20L91 39L137 39L137 22L183 22L183 41L229 41L229 50L274 50L274 35L320 35L320 22L366 22L366 35L411 35L411 37L457 37L457 33L503 33L503 30L549 30L549 42L594 42L594 48L640 48L640 31L686 31L686 28L731 28L731 30L777 30L777 40L823 40L823 45L869 45L869 53L914 53L914 45L960 45L960 39L960 17L960 17L914 17L914 26L869 26L869 23L823 23L823 12L777 12L777 17L731 17L731 19L686 19L686 9L640 9L640 30L594 30L594 15L549 15L549 8L503 8L503 22L457 22L457 9L411 9L411 15L366 15L366 10L320 10L320 9L274 9L274 30L229 30L229 21L183 21L183 12L137 12L137 28L91 28L91 11L46 11L46 24L0 24Z" fill="#8664a7"></path><path d="M0 84L46 84L46 67L91 67L91 70L137 70L137 59L183 59L183 60L229 60L229 61L274 61L274 64L320 64L320 73L366 73L366 47L411 47L411 92L457 92L457 62L503 62L503 57L549 57L549 77L594 77L594 85L640 85L640 61L686 61L686 43L731 43L731 86L777 86L777 73L823 73L823 71L869 71L869 86L914 86L914 84L960 84L960 87L960 37L960 43L914 43L914 51L869 51L869 43L823 43L823 38L777 38L777 28L731 28L731 26L686 26L686 29L640 29L640 46L594 46L594 40L549 40L549 28L503 28L503 31L457 31L457 35L411 35L411 33L366 33L366 20L320 20L320 33L274 33L274 48L229 48L229 39L183 39L183 20L137 20L137 37L91 37L91 18L46 18L46 46L0 46Z" fill="#c2afd3"></path><path d="M0 101L46 101L46 101L91 101L91 101L137 101L137 101L183 101L183 101L229 101L229 101L274 101L274 101L320 101L320 101L366 101L366 101L411 101L411 101L457 101L457 101L503 101L503 101L549 101L549 101L594 101L594 101L640 101L640 101L686 101L686 101L731 101L731 101L777 101L777 101L823 101L823 101L869 101L869 101L914 101L914 101L960 101L960 101L960 85L960 82L914 82L914 84L869 84L869 69L823 69L823 71L777 71L777 84L731 84L731 41L686 41L686 59L640 59L640 83L594 83L594 75L549 75L549 55L503 55L503 60L457 60L457 90L411 90L411 45L366 45L366 71L320 71L320 62L274 62L274 59L229 59L229 58L183 58L183 57L137 57L137 68L91 68L91 65L46 65L46 82L0 82Z" fill="#ffffff"></path></svg>